<svg xmlns="http://www.w3.org/2000/svg" width="154" height="24" viewBox="0 0 154 24">
    <defs>
        <linearGradient id="prefix__a" x1="75.047%" x2="35.921%" y1="76.446%" y2="18.922%">
            <stop offset="36%" stop-color="#00419B"/>
            <stop offset="47%" stop-color="#004D91"/>
            <stop offset="64%" stop-color="#006B8F"/>
            <stop offset="80%" stop-color="#00917B"/>
            <stop offset="97%" stop-color="#58BE46"/>
        </linearGradient>
    </defs>
    <g fill="none">
        <path fill="#00419B" d="M103.674 11.623c.457-.607.692-1.356.665-2.12.054-1.225-.566-2.38-1.61-2.997-.85-.521-2.304-.85-4.052-.85-1.02-.014-2.04.04-3.054.162v12.364h2.763v-5.575l4.23 5.575h3.393l-4.331-5.503c.768-.098 1.476-.473 1.996-1.056zm-4.619-.147c-.224.002-.448-.013-.67-.045V7.764c.223-.028.446-.042.67-.041 1.555 0 2.665.46 2.665 1.8 0 1.27-1.11 1.953-2.665 1.953zm15.608-5.658h2.807v7.297c0 3.708-2.169 5.527-5.407 5.527s-5.337-1.837-5.337-5.44V5.818h2.806v7.314c0 1.994.947 3.181 2.566 3.181 1.619 0 2.565-1.151 2.565-3.093V5.818zm13.421 6.325h2.637v4.783c-1.005 1.02-2.72 1.716-4.538 1.716-1.892.012-3.721-.692-5.129-1.976-1.19-1.093-1.793-2.59-1.793-4.678-.04-1.725.628-3.388 1.843-4.593 1.238-1.229 2.961-1.75 4.864-1.75 1.264-.051 2.522.193 3.679.712v2.186c-.982-.61-2.116-.921-3.267-.894-1.166-.046-2.297.411-3.112 1.258-.816.848-1.26 1.995-1.23 3.18-.029 1.18.41 2.322 1.22 3.17.809.828 1.922 1.275 3.07 1.23.605 0 1.204-.131 1.756-.384v-3.96zm11.408-.93c.921-.385 1.547-1.266 1.615-2.274.03-.938-.257-1.904-1.065-2.394-.87-.525-2.404-.809-4.067-.809-.837 0-1.872-.03-3.105.082v12.364c1.025.111 2.056.16 3.087.145 1.688 0 3.04-.164 4.057-.669 1.399-.675 2.167-1.598 2.167-3.333 0-.102 0-.2-.006-.292-.12-2.046-2.221-2.748-2.683-2.82zm-3.99-3.685h.726c1.398 0 2.448.375 2.448 1.53 0 1.03-.918 1.54-2.317 1.528h-.857V7.528zm1.236 9.063c-.348 0-1.02-.008-1.236-.02v-4.18c.215-.012.79-.018 1.138-.018 1.758 0 2.95.7 2.95 2.1 0 1.318-.833 2.118-2.852 2.118zM154 5.818l-4.66 7.525v4.839h-2.704v-4.84l-4.813-7.524h3.066l3.022 4.957 3.023-4.957H154zm-114.422 0h2.632l-4.217 12.839c-.334-.11-.824-.28-1.47-.512-.43-.17-.815-.439-1.126-.784-.256-.388-.454-.811-.59-1.257l-1.831-5.481-2.64 8.03c-.762-.245-1.253-.414-1.464-.51-.484-.2-.905-.53-1.217-.956-.213-.382-.38-.787-.5-1.208l-3.518-10.16h2.973l2.864 8.512 2.703-8.513h1.957l2.883 8.538 2.56-8.538zm9.668-.188c-2.046 0-3.691.583-4.937 1.747-1.308 1.196-2.03 2.916-1.973 4.702-.055 1.791.666 3.516 1.973 4.72 1.242 1.155 2.888 1.732 4.937 1.73 2.043 0 3.688-.577 4.933-1.73 1.306-1.205 2.027-2.93 1.974-4.72.056-1.786-.667-3.506-1.974-4.702-1.243-1.166-2.888-1.748-4.933-1.747zm2.834 9.526c-.69.863-1.74 1.343-2.834 1.295-1.09.052-2.137-.43-2.819-1.295-.673-.87-1.016-1.955-.969-3.06-.037-1.098.306-2.174.97-3.042.71-.83 1.739-1.308 2.822-1.312 1.083-.003 2.115.469 2.83 1.295.658.876.994 1.958.95 3.059.045 1.101-.291 2.184-.95 3.06zm13.836-3.534c.468-.602.715-1.35.698-2.118.027-1.247-.615-2.41-1.676-3.038-.849-.519-2.208-.814-3.956-.814-.99-.015-1.98.04-2.963.166v12.364h2.764v-5.574l4.232 5.574h3.39l-4.373-5.494c.738-.101 1.41-.482 1.884-1.066zm-4.557-.144c-.205 0-.395-.006-.576-.017V7.742c.18-.013.37-.02.576-.02 1.554 0 2.332.624 2.333 1.872 0 1.255-.778 1.883-2.333 1.884zm12.28 4.901c1.37.038 2.738-.089 4.077-.379l-.942 2.182h-7.295V5.818h2.762v10.506c.465.044.931.062 1.398.055zm14.6-9.038c-1.353-1.08-3.39-1.742-5.805-1.742-1.099-.012-2.197.062-3.285.22v12.363c1.087.162 2.186.235 3.285.218 2.416 0 4.314-.55 5.668-1.633 1.421-1.118 2.223-2.864 2.155-4.688 0-1.943-.572-3.582-2.017-4.738zm-5.499 9.038c-.253 0-.527-.012-.826-.036V7.797c.299-.024.573-.035.826-.035 1.422 0 2.516.352 3.282 1.057.8.744 1.2 1.833 1.201 3.267 0 2.862-1.494 4.293-4.483 4.293z"/>
        <path fill="url(#prefix__a)" d="M7.203 23.316l.318.32-.416-.127c-.083-.025-1.92-.59-3.816-2.838-1.154-1.397-2.012-3.02-2.522-4.767-.5-1.728-.757-3.518-.766-5.318.006-.994.126-1.984.357-2.95.883-.82 1.843-1.55 2.865-2.181l-.026.293c-.201 2.234-.477 5.578.1 8.91.643 3.722 1.861 6.586 3.906 8.658zM14.326.364c3.87 16.365-3.582 23.272-3.582 23.272C23.181 18.102 16.474 0 16.474 0 15 .212 14.326.364 14.326.364zm-1.947 9.545c.006-2.949-.181-5.895-.56-8.818C7.913 2.285 6.089 4 6.089 4S5.8 7.046 5.814 8.866c-.008 7.88.937 11.74 1.733 13.595.64 1.387 1.515 1.534 1.551 1.539.036-.005.912-.152 1.553-1.542 1.073-2.501 1.67-6.84 1.727-12.55z"/>
    </g>
</svg>